<?xml version="1.0" encoding="UTF-8" standalone="no"?>
<svg
   width="256"
   height="256"
   viewBox="0 0 256 256"
   version="1.1"
   preserveAspectRatio="xMidYMid"
   id="svg237"
   xmlns="http://www.w3.org/2000/svg"
   xmlns:svg="http://www.w3.org/2000/svg">
  <defs
     id="defs241" />
  <g
     id="g235">
    <rect
       fill="#092e20"
       x="14.101694"
       y="16.271187"
       width="225.62712"
       height="225.62712"
       rx="24.677965"
       id="rect231"
       style="stroke-width:0.881356" />
    <path
       d="m 186.37701,94.197636 v 66.226844 c 0,22.81881 -1.66949,33.76326 -6.67797,43.22493 -4.63868,9.09186 -10.76136,14.84114 -23.37531,21.14931 l -26.52879,-12.61515 c 12.61515,-5.93598 18.73662,-11.12876 22.63211,-19.10882 4.08218,-8.16197 5.38187,-17.62363 5.38187,-42.48174 V 94.197636 Z M 140.92849,50.078721 V 182.31699 c -14.65565,2.78249 -25.4158,3.89548 -37.10226,3.89548 -34.877458,0 -53.057587,-15.76744 -53.057587,-46.00742 0,-29.12578 19.294321,-48.04671 49.160906,-48.04671 4.637481,0 8.161971,0.369802 12.429651,1.482798 V 50.078721 Z m -38.21525,65.081529 c -14.470147,0 -22.818812,8.90517 -22.818812,24.48711 0,15.21334 7.977666,23.5608 22.633312,23.5608 3.15229,0 5.75048,-0.1855 9.83146,-0.7408 v -45.82431 c -3.33899,-1.1118 -6.12148,-1.4828 -9.64596,-1.4828 z M 186.37701,50.23071 V 79.541994 H 157.80892 V 50.23071 Z"
       fill="#fffffd"
       id="path233" />
  </g>
</svg>
