<?xml version="1.0" encoding="UTF-8" standalone="no"?>
<svg
   width="146"
   height="146"
   viewBox="0 0 146 146"
   version="1.1"
   id="svg38"
   xmlns="http://www.w3.org/2000/svg"
   xmlns:svg="http://www.w3.org/2000/svg">
  <defs
     id="defs22" />
  <g
     stroke="none"
     stroke-width="1"
     fill="none"
     fill-rule="evenodd"
     id="g36"
     transform="translate(42.067797,1.2372881)">
    <path
       d="m 35.053436,142.317 -3.783447,-1.29251 c 0,0 0.461923,-19.28678 -6.459143,-20.67082 -4.614044,-5.35225 0.738212,-227.01285 17.348425,-0.73821 0,0 -5.720931,2.86047 -6.736297,7.75166 -1.10775,4.79882 -0.369538,14.94988 -0.369538,14.94988 z"
       fill="#ffffff"
       id="path24" />
    <path
       d="m 35.053436,142.317 -3.783447,-1.29251 c 0,0 0.461923,-19.28678 -6.459143,-20.67082 -4.614044,-5.35225 0.738212,-227.01285 17.348425,-0.73821 0,0 -5.720931,2.86047 -6.736297,7.75166 -1.10775,4.79882 -0.369538,14.94988 -0.369538,14.94988 z"
       fill="#a6a385"
       id="path26" />
    <path
       d="m 37.084168,123.67606 c 0,0 33.128904,-21.77856 25.377241,-67.089267 C 54.9869,23.642658 37.360458,12.845761 35.422974,8.6927757 33.300721,5.7399258 31.269989,0.57243845 31.269989,0.57243845 L 32.654893,92.207487 c 0,0.09238 -2.861329,28.053803 4.429275,31.468573"
       fill="#ffffff"
       id="path28" />
    <path
       d="m 37.084168,123.67606 c 0,0 33.128904,-21.77856 25.377241,-67.089267 C 54.9869,23.642658 37.360458,12.845761 35.422974,8.6927757 33.300721,5.7399258 31.269989,0.57243845 31.269989,0.57243845 L 32.654893,92.207487 c 0,0.09238 -2.861329,28.053803 4.429275,31.468573"
       fill="#499d4a"
       id="path30" />
    <path
       d="m 29.332506,124.87533 c 0,0 -31.0990355,-21.22512 -29.25307261,-58.598527 C 1.8321484,28.90253 23.795481,10.538739 28.039987,7.2163508 c 2.768944,-2.95285 2.861328,-4.0606004 3.046097,-7.01345029 1.937484,4.15298479 1.56881,62.10568649 1.8451,68.93436749 0.830597,26.300223 -1.476425,50.755342 -3.598678,55.738062 z"
       fill="#ffffff"
       id="path32" />
    <path
       d="m 29.332506,124.87533 c 0,0 -31.0990355,-21.22512 -29.25307261,-58.598527 C 1.8321484,28.90253 23.795481,10.538739 28.039987,7.2163508 c 2.768944,-2.95285 2.861328,-4.0606004 3.046097,-7.01345029 1.937484,4.15298479 1.56881,62.10568649 1.8451,68.93436749 0.830597,26.300223 -1.476425,50.755342 -3.598678,55.738062 z"
       fill="#58aa50"
       id="path34" />
  </g>
</svg>
